<svg xmlns="http://www.w3.org/2000/svg" viewBox="0 0 24 24" stroke-width="1.5" width="24" height="24">
  <defs>
    <style>
      .svg {
        fill: none;
        stroke: currentColor;
        stroke-miterlimit: 10;
      }

      @media (prefers-color-scheme: light) {
        .svg {
          stroke: #000;
        }
      }

      @media (prefers-color-scheme: dark) {
        .svg {
          stroke: #fff;
        }
      }
    </style>
  </defs>
  <circle class="svg" cx="12" cy="16.8" r="1.91" />
  <path class="svg" d="M9.13 23.5v-1.91A2.87 2.87 0 0 1 12 18.72a2.87 2.87 0 0 1 2.87 2.87v1.91" />
  <circle class="svg" cx="6.26" cy="16.8" r="1.91" />
  <path class="svg" d="M3.39 23.5v-1.91a2.87 2.87 0 0 1 2.87-2.87 2.86 2.86 0 0 1 2.87 2.87v1.91" />
  <circle class="svg" cx="17.74" cy="16.8" r="1.91" />
  <path class="svg"
    d="M14.87 23.5v-1.91a2.86 2.86 0 0 1 2.87-2.87 2.87 2.87 0 0 1 2.87 2.87v1.91M1.48 7.24V1.5H12l-.11.17A12.52 12.52 0 0 1 1.48 7.24ZM6.86 15a23.3 23.3 0 0 0-1.16-3.11 12.79 12.79 0 0 0-4.22-4.65V23.5" />
  <path class="svg"
    d="M22.52 23.5V7.24a12.79 12.79 0 0 0-4.22 4.65A12.44 12.44 0 0 0 17.14 15m5.38-7.76V1.5H12l.11.17a12.52 12.52 0 0 0 10.41 5.57Z" />
</svg>